<?xml version="1.0" encoding="utf-8"?>
<!-- Generator: Adobe Illustrator 22.0.1, SVG Export Plug-In . SVG Version: 6.00 Build 0)  -->
<svg version="1.1" id="Layer_1" xmlns="http://www.w3.org/2000/svg" xmlns:xlink="http://www.w3.org/1999/xlink" x="0px" y="0px"
	 viewBox="0 0 24 24" style="enable-background:new 0 0 24 24;" xml:space="preserve">
<style type="text/css">
	.st0{fill:#FFFFFF;}
</style>
<g>
	<g>
		<g>
			<g>
				<g>
					<path class="st0" d="M0,24l2.2-5.7c-1.2-1.9-1.9-4.1-1.9-6.4C0.3,5.3,5.6,0,12.1,0C18.7,0,24,5.3,24,11.9
						c0,6.5-5.3,11.9-11.9,11.9c-2.2,0-4.4-0.6-6.3-1.8L0,24z M6,21l0.2,0.1c1.8,1.2,3.9,1.8,6,1.8c6.1,0,11-4.9,11-11
						s-4.9-11-11-11s-11,4.9-11,11c0,2.2,0.6,4.3,1.9,6.1l0.1,0.2l-1.7,4.4L6,21z"/>
				</g>
			</g>
		</g>
	</g>
	<g>
		<g>
			<g>
				<g>
					<path class="st0" d="M15.1,17.7c-1.4,0-4.4-1.7-5.8-3.1c-1.3-1.3-3.1-4.2-3.1-5.8c0-1.5,1.6-3.3,2.8-3.3h0.2l0.1,0.1
						c0.3,0.3,1.8,1.5,2.1,2.1c0.4,0.8-0.6,2-1.2,2.6c0.2,0.3,0.8,1,1.6,1.8c0.7,0.7,1.6,1.1,2.1,1.3c0.4-0.4,1.1-1,1.8-1l0.1,0
						l0.4,0.1c0.6,0.3,1.9,1.8,2.1,2.1l0.1,0.1V15C18.4,16.1,16.7,17.7,15.1,17.7z M8.9,6.5C8.2,6.6,7.1,7.9,7.1,8.9
						c0,1.3,1.7,4,2.9,5.2c1.4,1.4,4.1,2.9,5.2,2.9c1,0,2.2-1.1,2.4-1.8c-0.6-0.6-1.4-1.5-1.7-1.7l-0.2-0.1c-0.3,0-0.9,0.5-1.3,0.9
						l-0.2,0.2l-0.3-0.1c-0.2,0-1.5-0.5-2.7-1.6c-0.7-0.7-1.9-2-2-2.3l-0.1-0.3L9.4,10c0.8-0.7,1.4-1.6,1.3-1.8
						C10.5,7.9,9.6,7.1,8.9,6.5z"/>
				</g>
			</g>
		</g>
	</g>
</g>
</svg>
